<svg width="32" height="21" viewBox="0 0 32 21" fill="none" xmlns="http://www.w3.org/2000/svg">
<path d="M31.6308 8.86837C28.4983 3.55272 22.6561 0 16 0C9.34112 0 3.50024 3.55522 0.369248 8.86837C0.127498 9.2786 0 9.74607 0 10.2222C0 10.6984 0.127498 11.1659 0.369248 11.5761C3.50174 16.8917 9.3439 20.4444 16 20.4444C22.6589 20.4444 28.4998 16.8892 31.6308 11.576C31.8725 11.1658 32 10.6984 32 10.2222C32 9.74605 31.8725 9.27859 31.6308 8.86837ZM16 17.7777C10.3025 17.7777 5.3283 14.7388 2.66669 10.2222C5.11985 6.05927 9.53762 3.15166 14.6757 2.72183C15.2199 3.28211 15.5556 4.0461 15.5556 4.88888C15.5556 6.6071 14.1627 7.99999 12.4445 7.99999C10.7262 7.99999 9.33334 6.6071 9.33334 4.88888L9.3334 4.88655C8.76635 5.94682 8.44446 7.15799 8.44446 8.44443C8.44446 12.6173 11.8272 16 16 16C20.1728 16 23.5555 12.6173 23.5555 8.44443C23.5555 6.72049 22.9778 5.13171 22.0058 3.86027C25.0947 5.14655 27.6671 7.39477 29.3333 10.2222C26.6718 14.7388 21.6975 17.7777 16 17.7777Z" fill="black"/>
</svg>
