<svg width="29" height="26" viewBox="0 0 29 26" fill="none" xmlns="http://www.w3.org/2000/svg">
<path d="M20.2551 17.5157L21.8663 15.8909C22.118 15.6371 22.556 15.8148 22.556 16.1803V23.5629C22.556 24.9084 21.4736 26 20.1393 26H2.41672C1.08249 26 0 24.9084 0 23.5629V5.69047C0 4.34497 1.08249 3.25333 2.41672 3.25333H16.187C16.5445 3.25333 16.7257 3.68999 16.474 3.94893L14.8628 5.57369C14.7873 5.64986 14.6866 5.69047 14.5758 5.69047H2.41672V23.5629H20.1393V17.8C20.1393 17.6934 20.1796 17.5919 20.2551 17.5157ZM28.1397 7.26954L14.9182 20.6027L10.3667 21.1105C9.04759 21.2577 7.92482 20.1356 8.07083 18.7952L8.57432 14.2052L21.7958 0.87204C22.9488 -0.29068 24.8116 -0.29068 25.9596 0.87204L28.1346 3.06547C29.2876 4.22819 29.2876 6.1119 28.1397 7.26954ZM23.1653 8.83845L20.24 5.88849L10.8853 15.3273L10.5178 18.6429L13.8055 18.2722L23.1653 8.83845ZM26.4278 4.79178L24.2528 2.59835C24.0464 2.39018 23.709 2.39018 23.5076 2.59835L21.9519 4.16726L24.8771 7.11722L26.4329 5.54831C26.6343 5.33506 26.6343 4.99995 26.4278 4.79178Z" fill="black"/>
</svg>
