<svg width="26" height="26" viewBox="0 0 26 26" fill="none" xmlns="http://www.w3.org/2000/svg">
<path d="M23.5625 0H7.3125C5.96629 0 4.875 1.09129 4.875 2.4375V4.875H2.4375C1.09129 4.875 0 5.96629 0 7.3125V23.5625C0 24.9087 1.09129 26 2.4375 26H18.6875C20.0337 26 21.125 24.9087 21.125 23.5625V21.125H23.5625C24.9087 21.125 26 20.0337 26 18.6875V2.4375C26 1.09129 24.9087 0 23.5625 0ZM18.3828 23.5625H2.74219C2.66138 23.5625 2.58388 23.5304 2.52674 23.4733C2.4696 23.4161 2.4375 23.3386 2.4375 23.2578V7.61719C2.4375 7.53638 2.4696 7.45888 2.52674 7.40174C2.58388 7.3446 2.66138 7.3125 2.74219 7.3125H4.875V18.6875C4.875 20.0337 5.96629 21.125 7.3125 21.125H18.6875V23.2578C18.6875 23.3386 18.6554 23.4161 18.5983 23.4733C18.5411 23.5304 18.4636 23.5625 18.3828 23.5625ZM23.2578 18.6875H7.61719C7.53638 18.6875 7.45888 18.6554 7.40174 18.5983C7.3446 18.5411 7.3125 18.4636 7.3125 18.3828V2.74219C7.3125 2.66138 7.3446 2.58388 7.40174 2.52674C7.45888 2.4696 7.53638 2.4375 7.61719 2.4375H23.2578C23.3386 2.4375 23.4161 2.4696 23.4733 2.52674C23.5304 2.58388 23.5625 2.66138 23.5625 2.74219V18.3828C23.5625 18.4636 23.5304 18.5411 23.4733 18.5983C23.4161 18.6554 23.3386 18.6875 23.2578 18.6875Z" fill="black"/>
</svg>
