<svg width="19" height="26" viewBox="0 0 19 26" fill="none" xmlns="http://www.w3.org/2000/svg">
<path d="M16.625 0H2.375C1.0638 0 0 1.0918 0 2.4375V23.5625C0 24.9082 1.0638 26 2.375 26H16.625C17.9362 26 19 24.9082 19 23.5625V2.4375C19 1.0918 17.9362 0 16.625 0ZM16.625 23.5625H2.375V2.4375H16.625V23.5625ZM7.125 5.6875H11.875C12.3104 5.6875 12.6667 5.32188 12.6667 4.875C12.6667 4.42812 12.3104 4.0625 11.875 4.0625H7.125C6.68958 4.0625 6.33333 4.42812 6.33333 4.875C6.33333 5.32188 6.68958 5.6875 7.125 5.6875ZM9.5 14.625C11.2466 14.625 12.6667 13.1676 12.6667 11.375C12.6667 9.58242 11.2466 8.125 9.5 8.125C7.75339 8.125 6.33333 9.58242 6.33333 11.375C6.33333 13.1676 7.75339 14.625 9.5 14.625ZM5.06667 21.125H13.9333C14.5469 21.125 15.0417 20.6883 15.0417 20.15V19.175C15.0417 17.5602 13.5523 16.25 11.7167 16.25C11.1823 16.25 10.7914 16.6562 9.5 16.6562C8.16901 16.6562 7.8474 16.25 7.28333 16.25C5.44766 16.25 3.95833 17.5602 3.95833 19.175V20.15C3.95833 20.6883 4.45312 21.125 5.06667 21.125Z" fill="black"/>
</svg>
