<svg width="26" height="26" viewBox="0 0 26 26" fill="none" xmlns="http://www.w3.org/2000/svg">
<path d="M22.3398 0.328824L1.21645 12.5114C-0.530292 13.5219 -0.362727 16.1067 1.50588 16.8735L7.30973 19.2755V23.5615C7.30973 25.9177 10.3157 26.8877 11.707 25.0138L13.9311 22.0126L19.6131 24.3587C19.9127 24.4806 20.2275 24.5416 20.5423 24.5416C20.9587 24.5416 21.37 24.4349 21.7406 24.2267C22.3906 23.8611 22.8374 23.2111 22.9542 22.4747L25.9704 2.81205C26.2801 0.775704 24.0967 -0.681732 22.3398 0.328824ZM9.74704 23.5615V20.281L11.6055 21.0478L9.74704 23.5615ZM20.5423 22.104L12.7327 18.8794L19.8517 8.60625C20.395 7.81913 19.3693 6.90506 18.6483 7.52968L7.9089 16.8888L2.4351 14.6239L23.5585 2.43627L20.5423 22.104Z" fill="black"/>
</svg>
