<svg width="124" height="41" viewBox="0 0 124 41" fill="none" xmlns="http://www.w3.org/2000/svg">
<circle cx="20.5" cy="20.5" r="20.5" fill="black"/>
<path d="M15.7994 23.6369H15.8002C15.8009 23.6369 15.8016 23.6367 15.8023 23.6367H25.3633C25.5987 23.6367 25.8056 23.4806 25.8703 23.2543L27.9797 15.8714C28.0251 15.7123 27.9933 15.5412 27.8937 15.4091C27.794 15.2769 27.6381 15.1992 27.4727 15.1992H14.5832L14.2063 13.5028C14.1526 13.2615 13.9386 13.0898 13.6914 13.0898H10.5273C10.2361 13.0898 10 13.3259 10 13.6172C10 13.9085 10.2361 14.1445 10.5273 14.1445H13.2684C13.3352 14.4451 15.0724 22.2627 15.1724 22.7125C14.6119 22.9561 14.2188 23.5149 14.2188 24.1641C14.2188 25.0364 14.9285 25.7461 15.8008 25.7461H25.3633C25.6546 25.7461 25.8906 25.51 25.8906 25.2187C25.8906 24.9275 25.6546 24.6914 25.3633 24.6914H15.8008C15.5101 24.6914 15.2734 24.4548 15.2734 24.1641C15.2734 23.8737 15.5092 23.6375 15.7994 23.6369ZM26.7735 16.2539L24.9654 22.582H16.2238L14.8175 16.2539H26.7735Z" fill="white"/>
<path d="M15.2734 27.3281C15.2734 28.2004 15.9832 28.9102 16.8555 28.9102C17.7278 28.9102 18.4375 28.2004 18.4375 27.3281C18.4375 26.4558 17.7278 25.7461 16.8555 25.7461C15.9832 25.7461 15.2734 26.4558 15.2734 27.3281ZM16.8555 26.8008C17.1462 26.8008 17.3828 27.0374 17.3828 27.3281C17.3828 27.6189 17.1462 27.8555 16.8555 27.8555C16.5647 27.8555 16.3281 27.6189 16.3281 27.3281C16.3281 27.0374 16.5647 26.8008 16.8555 26.8008Z" fill="white"/>
<path d="M22.7266 27.3281C22.7266 28.2004 23.4363 28.9102 24.3086 28.9102C25.1809 28.9102 25.8906 28.2004 25.8906 27.3281C25.8906 26.4558 25.1809 25.7461 24.3086 25.7461C23.4363 25.7461 22.7266 26.4558 22.7266 27.3281ZM24.3086 26.8008C24.5993 26.8008 24.8359 27.0374 24.8359 27.3281C24.8359 27.6189 24.5993 27.8555 24.3086 27.8555C24.0179 27.8555 23.7812 27.6189 23.7812 27.3281C23.7812 27.0374 24.0179 26.8008 24.3086 26.8008Z" fill="white"/>
<path d="M57.05 13.41C58.44 13.41 59.505 13.87 60.245 14.79C60.985 15.7 61.355 16.99 61.355 18.66C61.355 19.83 61.155 20.82 60.755 21.63C60.355 22.44 59.795 23.055 59.075 23.475C58.355 23.885 57.515 24.09 56.555 24.09C55.515 24.09 54.685 23.9 54.065 23.52L54.5 22.65C55 22.98 55.68 23.145 56.54 23.145C57.7 23.145 58.61 22.78 59.27 22.05C59.93 21.31 60.26 20.24 60.26 18.84C60.26 18.58 60.245 18.295 60.215 17.985C59.955 18.555 59.54 19 58.97 19.32C58.4 19.63 57.745 19.785 57.005 19.785C56.315 19.785 55.7 19.655 55.16 19.395C54.63 19.135 54.215 18.77 53.915 18.3C53.615 17.82 53.465 17.265 53.465 16.635C53.465 15.995 53.62 15.43 53.93 14.94C54.24 14.45 54.665 14.075 55.205 13.815C55.755 13.545 56.37 13.41 57.05 13.41ZM57.17 18.87C57.7 18.87 58.165 18.77 58.565 18.57C58.975 18.37 59.295 18.095 59.525 17.745C59.755 17.395 59.87 17.005 59.87 16.575C59.87 16.175 59.76 15.805 59.54 15.465C59.33 15.125 59.015 14.85 58.595 14.64C58.175 14.43 57.675 14.325 57.095 14.325C56.335 14.325 55.715 14.535 55.235 14.955C54.765 15.365 54.53 15.915 54.53 16.605C54.53 17.295 54.765 17.845 55.235 18.255C55.715 18.665 56.36 18.87 57.17 18.87ZM74.2564 13.5V14.265L69.8614 24H68.6914L73.0114 14.46H67.6114V16.425H66.5464V13.5H74.2564ZM79.7364 17.715C80.4264 17.715 81.0364 17.845 81.5664 18.105C82.1064 18.365 82.5264 18.735 82.8264 19.215C83.1264 19.685 83.2764 20.235 83.2764 20.865C83.2764 21.505 83.1214 22.07 82.8114 22.56C82.5014 23.05 82.0714 23.43 81.5214 23.7C80.9814 23.96 80.3714 24.09 79.6914 24.09C78.3014 24.09 77.2364 23.635 76.4964 22.725C75.7564 21.805 75.3864 20.51 75.3864 18.84C75.3864 17.67 75.5864 16.68 75.9864 15.87C76.3864 15.06 76.9464 14.45 77.6664 14.04C78.3864 13.62 79.2264 13.41 80.1864 13.41C81.2264 13.41 82.0564 13.6 82.6764 13.98L82.2414 14.85C81.7414 14.52 81.0614 14.355 80.2014 14.355C79.0414 14.355 78.1314 14.725 77.4714 15.465C76.8114 16.195 76.4814 17.26 76.4814 18.66C76.4814 18.91 76.4964 19.195 76.5264 19.515C76.7864 18.945 77.2014 18.505 77.7714 18.195C78.3414 17.875 78.9964 17.715 79.7364 17.715ZM79.6464 23.175C80.4064 23.175 81.0214 22.97 81.4914 22.56C81.9714 22.14 82.2114 21.585 82.2114 20.895C82.2114 20.205 81.9714 19.655 81.4914 19.245C81.0214 18.835 80.3814 18.63 79.5714 18.63C79.0414 18.63 78.5714 18.73 78.1614 18.93C77.7614 19.13 77.4464 19.405 77.2164 19.755C76.9864 20.105 76.8714 20.495 76.8714 20.925C76.8714 21.325 76.9764 21.695 77.1864 22.035C77.4064 22.375 77.7264 22.65 78.1464 22.86C78.5664 23.07 79.0664 23.175 79.6464 23.175ZM87.2871 17.805C88.8071 17.805 89.9121 18.08 90.6021 18.63C91.3021 19.17 91.6521 19.93 91.6521 20.91C91.6521 21.52 91.5071 22.065 91.2171 22.545C90.9371 23.025 90.5121 23.405 89.9421 23.685C89.3721 23.955 88.6721 24.09 87.8421 24.09C87.0921 24.09 86.3771 23.97 85.6971 23.73C85.0271 23.48 84.4871 23.15 84.0771 22.74L84.6021 21.885C84.9521 22.245 85.4121 22.54 85.9821 22.77C86.5521 22.99 87.1671 23.1 87.8271 23.1C88.6971 23.1 89.3671 22.905 89.8371 22.515C90.3171 22.125 90.5571 21.605 90.5571 20.955C90.5571 20.235 90.2871 19.69 89.7471 19.32C89.2171 18.95 88.3171 18.765 87.0471 18.765H84.8121L85.3521 13.5H91.0971V14.46H86.2971L85.9371 17.805H87.2871ZM101.749 16.05C102.489 16.05 103.159 16.22 103.759 16.56C104.359 16.89 104.829 17.36 105.169 17.97C105.509 18.58 105.679 19.275 105.679 20.055C105.679 20.845 105.509 21.545 105.169 22.155C104.829 22.765 104.359 23.24 103.759 23.58C103.169 23.91 102.499 24.075 101.749 24.075C101.109 24.075 100.529 23.945 100.009 23.685C99.4989 23.415 99.0789 23.025 98.7489 22.515V26.91H97.6839V16.11H98.7039V17.67C99.0239 17.15 99.4439 16.75 99.9639 16.47C100.494 16.19 101.089 16.05 101.749 16.05ZM101.674 23.13C102.224 23.13 102.724 23.005 103.174 22.755C103.624 22.495 103.974 22.13 104.224 21.66C104.484 21.19 104.614 20.655 104.614 20.055C104.614 19.455 104.484 18.925 104.224 18.465C103.974 17.995 103.624 17.63 103.174 17.37C102.724 17.11 102.224 16.98 101.674 16.98C101.114 16.98 100.609 17.11 100.159 17.37C99.7189 17.63 99.3689 17.995 99.1089 18.465C98.8589 18.925 98.7339 19.455 98.7339 20.055C98.7339 20.655 98.8589 21.19 99.1089 21.66C99.3689 22.13 99.7189 22.495 100.159 22.755C100.609 23.005 101.114 23.13 101.674 23.13ZM107.822 24.075C107.602 24.075 107.412 23.995 107.252 23.835C107.102 23.675 107.027 23.48 107.027 23.25C107.027 23.02 107.102 22.83 107.252 22.68C107.412 22.52 107.602 22.44 107.822 22.44C108.042 22.44 108.232 22.52 108.392 22.68C108.552 22.83 108.632 23.02 108.632 23.25C108.632 23.48 108.552 23.675 108.392 23.835C108.232 23.995 108.042 24.075 107.822 24.075Z" fill="black"/>
<path d="M119 22L114 17H124L119 22Z" fill="black"/>
</svg>
