<svg width="32" height="25" viewBox="0 0 32 25" fill="none" xmlns="http://www.w3.org/2000/svg">
<path d="M31.1122 0C31.0033 0 30.8911 0.0205555 30.7811 0.0644444L21.3339 3.55556H21.3333L11.7778 0.182222C11.4151 0.0616821 11.0355 0.000158256 10.6533 0C10.2817 0 9.91056 0.0583333 9.55278 0.174444L1.11778 3.10833C0.787877 3.24028 0.505073 3.46805 0.305839 3.76224C0.106605 4.05644 7.90115e-05 4.40358 0 4.75889L0 23.9989C0 24.5094 0.418333 24.8889 0.888333 24.8889C0.997222 24.8889 1.10889 24.8683 1.21944 24.8244L10.6667 21.3333L20.2222 24.7061C20.9439 24.9469 21.7238 24.9499 22.4472 24.7144L30.8822 21.7806C31.2122 21.6487 31.495 21.4209 31.6943 21.1267C31.8935 20.8325 32 20.4853 32 20.13V0.89C32 0.379445 31.5817 0 31.1122 0ZM12.4444 3.24556L19.5556 5.75611V21.6433L12.4444 19.1328V3.24556ZM2.66667 21.4472V5.39278L9.77778 2.91889V18.8189L9.74222 18.8317L2.66667 21.4472ZM29.3333 19.4956L22.2222 21.9694V6.07L22.2578 6.05667L29.3333 3.44167V19.4956Z" fill="black"/>
</svg>
