<svg width="26" height="26" viewBox="0 0 26 26" fill="none" xmlns="http://www.w3.org/2000/svg">
<path d="M23.5625 0H7.3125C5.9668 0 4.875 1.0918 4.875 2.4375V4.875H2.4375C1.0918 4.875 0 5.9668 0 7.3125V23.5625C0 24.9082 1.0918 26 2.4375 26H18.6875C20.0332 26 21.125 24.9082 21.125 23.5625V21.125H23.5625C24.9082 21.125 26 20.0332 26 18.6875V2.4375C26 1.0918 24.9082 0 23.5625 0ZM18.6875 23.5625H2.4375V13H18.6875V23.5625ZM23.5625 18.6875H21.125V7.3125C21.125 5.9668 20.0332 4.875 18.6875 4.875H7.3125V2.4375H23.5625V18.6875Z" fill="black"/>
</svg>
