<svg width="27" height="26" viewBox="0 0 27 26" fill="none" xmlns="http://www.w3.org/2000/svg">
<path d="M25.6172 8.70855L18.2439 7.62704L14.9484 0.904438C14.3579 -0.293851 12.6471 -0.309084 12.0516 0.904438L8.75608 7.62704L1.38283 8.70855C0.0605847 8.9015 -0.469321 10.5415 0.489556 11.4809L5.82394 16.7107L4.56226 24.0984C4.33516 25.4338 5.7331 26.4341 6.90394 25.8096L13.5 22.3213L20.0961 25.8096C21.2669 26.429 22.6648 25.4338 22.4377 24.0984L21.1761 16.7107L26.5104 11.4809C27.4693 10.5415 26.9394 8.9015 25.6172 8.70855ZM18.577 15.8577L19.7731 22.8849L13.5 19.5693L7.22693 22.8849L8.423 15.8577L3.346 10.8817L10.3609 9.85607L13.5 3.45842L16.6391 9.85607L23.654 10.8817L18.577 15.8577Z" fill="black"/>
</svg>
