<svg width="33" height="26" viewBox="0 0 33 26" fill="none" xmlns="http://www.w3.org/2000/svg">
<path d="M27.5 22.2857V23.2143C27.5 24.7528 26.2688 26 24.75 26H2.75C1.2312 26 0 24.7528 0 23.2143V8.35714C0 6.81862 1.2312 5.57143 2.75 5.57143H3.66667V8.35714H3.09375C3.00258 8.35714 2.91515 8.39383 2.85068 8.45913C2.78622 8.52444 2.75 8.613 2.75 8.70536V22.8661C2.75 22.9584 2.78622 23.047 2.85068 23.1123C2.91515 23.1776 3.00258 23.2143 3.09375 23.2143H24.4062C24.4974 23.2143 24.5849 23.1776 24.6493 23.1123C24.7138 23.047 24.75 22.9584 24.75 22.8661V22.2857H27.5ZM29.9062 2.78571H8.59375C8.50258 2.78571 8.41515 2.8224 8.35068 2.8877C8.28622 2.95301 8.25 3.04158 8.25 3.13393V17.2946C8.25 17.387 8.28622 17.4756 8.35068 17.5409C8.41515 17.6062 8.50258 17.6429 8.59375 17.6429H29.9062C29.9974 17.6429 30.0849 17.6062 30.1493 17.5409C30.2138 17.4756 30.25 17.387 30.25 17.2946V3.13393C30.25 3.04158 30.2138 2.95301 30.1493 2.8877C30.0849 2.8224 29.9974 2.78571 29.9062 2.78571ZM30.25 0C31.7688 0 33 1.24719 33 2.78571V17.6429C33 19.1814 31.7688 20.4286 30.25 20.4286H8.25C6.7312 20.4286 5.5 19.1814 5.5 17.6429V2.78571C5.5 1.24719 6.7312 0 8.25 0H30.25ZM15.125 6.5C15.125 7.78207 14.099 8.82143 12.8333 8.82143C11.5677 8.82143 10.5417 7.78207 10.5417 6.5C10.5417 5.21793 11.5677 4.17857 12.8333 4.17857C14.099 4.17857 15.125 5.21793 15.125 6.5ZM11 12.0714L13.2639 9.77815C13.5323 9.50619 13.9677 9.50619 14.2362 9.77815L16.5 12.0714L22.4305 6.06386C22.699 5.79191 23.1343 5.79191 23.4028 6.06386L27.5 10.2143V14.8571H11V12.0714Z" fill="black"/>
</svg>
