<svg width="19" height="26" viewBox="0 0 19 26" fill="none" xmlns="http://www.w3.org/2000/svg">
<path d="M14.25 12.5938V14.0156C14.25 14.3508 13.9828 14.625 13.6562 14.625H5.34375C5.01719 14.625 4.75 14.3508 4.75 14.0156V12.5938C4.75 12.2586 5.01719 11.9844 5.34375 11.9844H13.6562C13.9828 11.9844 14.25 12.2586 14.25 12.5938ZM13.6562 16.25H5.34375C5.01719 16.25 4.75 16.5242 4.75 16.8594V18.2812C4.75 18.6164 5.01719 18.8906 5.34375 18.8906H13.6562C13.9828 18.8906 14.25 18.6164 14.25 18.2812V16.8594C14.25 16.5242 13.9828 16.25 13.6562 16.25ZM19 6.69805V23.5625C19 24.9082 17.9362 26 16.625 26H2.375C1.0638 26 0 24.9082 0 23.5625V2.4375C0 1.0918 1.0638 0 2.375 0H12.4737C13.1021 0 13.7057 0.258984 14.151 0.716016L18.3023 4.97656C18.7477 5.42852 19 6.05312 19 6.69805ZM12.6667 2.63555V6.5H16.432L12.6667 2.63555ZM16.625 23.5625V8.9375H11.4792C10.8211 8.9375 10.2917 8.39414 10.2917 7.71875V2.4375H2.375V23.5625H16.625Z" fill="black"/>
</svg>
