<svg width="64" height="64" viewBox="0 0 64 64" fill="none" xmlns="http://www.w3.org/2000/svg">
<path d="M43.1303 26.707L38.2842 25.0676C36.8909 24.5962 35.8604 23.5733 35.528 22.3318L34.3725 18.0137C33.5357 14.8871 28.8391 13.9328 26.4248 16.3979L23.0904 19.8031C22.1322 20.7824 20.6667 21.2982 19.1737 21.1824L13.9792 20.781C10.2178 20.4903 7.69723 23.9869 9.71343 26.6977L12.4985 30.4422C13.2992 31.5187 13.425 32.8609 12.8338 34.0309L10.7793 38.1011C9.2914 41.0477 12.4299 44.1636 16.0901 43.3736L21.1458 42.2821C22.599 41.9685 24.1412 42.2821 25.27 43.12L29.1954 46.0365C32.0369 48.1481 36.4971 46.5773 36.7435 43.3778L37.0831 38.959C37.1807 37.6883 38.0081 36.5404 39.2966 35.8882L43.7771 33.6209C47.0203 31.9808 46.6381 27.8942 43.1303 26.707Z" fill="#F5F5F5"/>
<path d="M41.0083 40.0243L42.711 39.4608C43.2005 39.2987 43.5626 38.9471 43.6794 38.5203L44.0853 37.036C44.3794 35.9612 46.0295 35.6331 46.8778 36.4805L48.0493 37.6511C48.386 37.9877 48.9009 38.165 49.4255 38.1252L51.2505 37.9872C52.5721 37.8873 53.4577 39.0892 52.7493 40.0211L51.7708 41.3083C51.4895 41.6783 51.4453 42.1397 51.653 42.5419L52.3748 43.941C52.8976 44.9539 51.7949 46.025 50.5089 45.7534L48.7326 45.3782C48.222 45.2704 47.6801 45.3782 47.2835 45.6662L45.9043 46.6688C44.906 47.3947 43.3389 46.8547 43.2523 45.7549L43.1329 44.2359C43.0987 43.7991 42.808 43.4045 42.3552 43.1803L40.781 42.4009C39.6415 41.8372 39.7758 40.4324 41.0083 40.0243Z" fill="#F5F5F5"/>
<circle cx="32" cy="32" r="31.5" stroke="#00CAE5"/>
</svg>
