<svg width="64" height="64" viewBox="0 0 64 64" fill="none" xmlns="http://www.w3.org/2000/svg">
<circle cx="32" cy="32" r="31.5" stroke="#FF73F1"/>
<path d="M32 12C20.9516 12 12 20.9516 12 32C12 43.0484 20.9516 52 32 52C43.0484 52 52 43.0484 52 32C52 20.9516 43.0484 12 32 12ZM19.2903 26.1613C19.8306 24.7419 21.4435 24.0081 22.9113 24.3952L23.4839 24.5484L23.6452 23.9758C24.0484 22.5161 25.4839 21.4839 26.9919 21.7258C28.7177 22 29.7661 23.6774 29.3145 25.3145L27.75 30.9516C27.6532 31.3145 27.2742 31.5323 26.9032 31.4355L21.2419 29.9677C19.5968 29.5323 18.6694 27.7903 19.2903 26.1613ZM32 46.1935C27.1129 46.1935 21.1532 43.1048 20.4032 38.6694C20.2419 37.7177 21.1452 36.9355 22.0726 37.2258C24.5081 38.0081 28.129 38.4516 32 38.4516C35.871 38.4516 39.4919 38.0081 41.9274 37.2258C42.8468 36.9355 43.75 37.7177 43.5968 38.6694C42.8468 43.1048 36.8871 46.1935 32 46.1935ZM42.7581 29.9597L37.0968 31.4274C36.7339 31.5242 36.3548 31.3064 36.25 30.9435L34.6855 25.3065C34.2339 23.6694 35.2823 21.9919 37.0081 21.7177C38.5081 21.4758 39.9435 22.5081 40.3548 23.9677L40.5161 24.5403L41.0887 24.3871C42.5565 24.0081 44.1694 24.7339 44.7097 26.1532C45.3306 27.7903 44.4032 29.5323 42.7581 29.9597Z" fill="#F5F5F5"/>
</svg>
