<svg width="64" height="64" viewBox="0 0 64 64" fill="none" xmlns="http://www.w3.org/2000/svg">
<circle cx="32" cy="32" r="31.5" stroke="#492FE6"/>
<path d="M31 22L32 20L34 19L32 18L31 16L30 18L28 19L30 20L31 22ZM22 26L23.6663 22.6669L27 21L23.6663 19.3331L22 16L20.3338 19.3331L17 21L20.3338 22.6669L22 26ZM44 34L42.3337 37.3331L39 39L42.3337 40.6669L44 44L45.6663 40.6669L49 39L45.6663 37.3331L44 34ZM48.4137 21.8894L43.1106 16.5863C42.7206 16.195 42.2087 16 41.6969 16C41.185 16 40.6731 16.195 40.2825 16.5863L17.5863 39.2825C16.805 40.0637 16.805 41.33 17.5863 42.1106L22.8894 47.4137C23.28 47.8044 23.7919 47.9994 24.3031 47.9994C24.815 47.9994 25.3269 47.8044 25.7175 47.4137L48.4137 24.7169C49.195 23.9369 49.195 22.67 48.4137 21.8894ZM39.4656 28.7163L36.2838 25.5344L41.6963 20.1219L44.8781 23.3038L39.4656 28.7163Z" fill="#F5F5F5"/>
</svg>
