<svg width="64" height="64" viewBox="0 0 64 64" fill="none" xmlns="http://www.w3.org/2000/svg">
<circle cx="32" cy="32" r="31.5" stroke="#F2440D"/>
<path d="M34.125 8.23673C34.125 6.0053 31.4109 5.16502 30.216 7.01442C19.25 23.9861 34.8333 24.75 34.8333 33C34.8333 36.3402 32.2555 39.0429 29.0914 38.9995C25.9774 38.9567 23.5 36.2081 23.5 32.9106V24.894C23.5 22.8594 21.1562 21.8729 19.8315 23.3468C17.4615 25.9836 15 30.4999 15 36C15 45.9252 22.6262 54 32 54C41.3738 54 49 45.9252 49 36C49 20.0353 34.125 17.906 34.125 8.23673Z" fill="#F5F5F5"/>
</svg>
