<svg width="64" height="64" viewBox="0 0 64 64" fill="none" xmlns="http://www.w3.org/2000/svg">
<circle cx="32" cy="32" r="31.5" stroke="#F2440D"/>
<path d="M32 14C20.3942 14 11 23.2006 11 34.5714V38.4286C11 38.9061 11.1357 39.3742 11.392 39.7805C11.6483 40.1867 12.015 40.515 12.4511 40.7286L13.6309 41.3064C13.7959 46.1351 17.8431 50 22.8125 50H24.7812C25.8686 50 26.75 49.1366 26.75 48.0714V33.9286C26.75 32.8634 25.8686 32 24.7812 32H22.8125C20.2415 32 17.9176 33.0349 16.25 34.7022V34.5714C16.25 26.0641 23.3154 19.1429 32 19.1429C40.6846 19.1429 47.75 26.0641 47.75 34.5714V34.7022C46.0824 33.0349 43.7585 32 41.1875 32H39.2188C38.1314 32 37.25 32.8634 37.25 33.9286V48.0714C37.25 49.1366 38.1314 50 39.2188 50H41.1875C46.1569 50 50.2041 46.135 50.3691 41.3064L51.5489 40.7286C51.9849 40.515 52.3516 40.1867 52.6079 39.7805C52.8642 39.3742 53 38.9061 53 38.4286V34.5714C53 23.2026 43.6077 14 32 14Z" fill="#F5F5F5"/>
</svg>
