<svg width="64" height="38" viewBox="0 0 64 38" fill="none" xmlns="http://www.w3.org/2000/svg">
<path d="M0.401367 14.5223V0.303955H5.46719L8.27597 12.7008H8.62706V0.303955H11.2352V14.5223H6.16939L3.36061 2.12553H3.00951V14.5223H0.401367Z" fill="#F5F5F5"/>
<path d="M17.1036 14.8256C16.4014 14.8256 15.7493 14.7244 15.1976 14.4714C14.6459 14.2184 14.1945 13.8642 13.8434 13.3582C13.4923 12.8522 13.3418 12.2956 13.3418 11.5873C13.3418 10.8789 13.4923 10.3223 13.8434 9.86688C14.1945 9.41149 14.6459 9.0573 15.1976 8.8043C15.7995 8.5513 16.4515 8.4501 17.2039 8.4501H19.9625V7.89351C19.9625 7.43812 19.812 7.03333 19.5111 6.72973C19.2101 6.42614 18.7587 6.27434 18.1067 6.27434C17.4546 6.27434 17.0032 6.42614 16.7023 6.72973C16.4014 7.03333 16.2007 7.38752 16.1004 7.84291L13.7431 7.03333C13.8935 6.52733 14.1443 6.02134 14.4954 5.61655C14.8465 5.21175 15.3481 4.85756 15.9499 4.55396C16.5518 4.30097 17.254 4.14917 18.1568 4.14917C19.4609 4.14917 20.5142 4.50336 21.2666 5.16115C22.0189 5.81894 22.4202 6.78033 22.4202 8.04531V11.7897C22.4202 12.1944 22.6208 12.3968 22.9719 12.3968H23.7744V14.522H22.0691C21.5675 14.522 21.1662 14.4208 20.8152 14.1678C20.5142 13.9148 20.3136 13.6112 20.3136 13.2064H19.9123C19.8622 13.3582 19.7619 13.5606 19.5612 13.8642C19.3606 14.1172 19.0597 14.3702 18.6584 14.5726C18.3575 14.7244 17.8057 14.8256 17.1036 14.8256ZM17.5048 12.751C18.207 12.751 18.8089 12.5486 19.2603 12.1438C19.7117 11.7391 19.9123 11.2331 19.9123 10.5247V10.3223H17.3543C16.9029 10.3223 16.5017 10.4235 16.2509 10.6259C16.0001 10.8283 15.8496 11.1319 15.8496 11.4861C15.8496 11.8403 16.0001 12.1438 16.2509 12.3968C16.602 12.6498 17.0032 12.751 17.5048 12.751Z" fill="#F5F5F5"/>
<path d="M29.1412 14.6738C28.3387 14.6738 27.6867 14.4714 27.0848 14.1172C26.4829 13.763 26.0315 13.257 25.7306 12.5992C25.4296 11.9414 25.229 11.2331 25.229 10.4235V4.45276H27.787V10.2717C27.787 11.0307 27.9876 11.5873 28.3387 11.992C28.6898 12.3968 29.2415 12.5486 29.9437 12.5486C30.7463 12.5486 31.3481 12.2956 31.7494 11.7896C32.1506 11.2837 32.4014 10.5247 32.4014 9.61388V4.45276H34.9594V14.522H32.4516V13.2064H32.1005C31.95 13.5606 31.6491 13.8642 31.1977 14.2184C30.7463 14.522 30.0441 14.6738 29.1412 14.6738Z" fill="#F5F5F5"/>
<path d="M37.7681 14.5223V0.303955H40.3261V8.19744H40.6772L43.9875 4.45309H47.2978L42.6834 9.36122L47.4483 14.5729H44.1881L40.6772 10.5756H40.3261V14.5223H37.7681Z" fill="#F5F5F5"/>
<path d="M50.4073 3.23835C49.9559 3.23835 49.5546 3.08655 49.2537 2.78296C48.9527 2.47936 48.8022 2.07457 48.8022 1.61918C48.8022 1.11318 48.9527 0.758988 49.2537 0.455393C49.5546 0.151798 49.9559 0 50.4073 0C50.8587 0 51.2599 0.151798 51.5609 0.455393C51.8618 0.758988 52.0123 1.16378 52.0123 1.61918C52.0123 2.12517 51.8618 2.47936 51.5609 2.78296C51.2599 3.13715 50.8587 3.23835 50.4073 3.23835ZM49.1533 14.522V4.45273H51.7113V14.522H49.1533Z" fill="#F5F5F5"/>
<path d="M54.1694 14.522V4.4527H56.6773V5.76828H57.0284C57.1788 5.41409 57.4798 5.05989 57.9312 4.7563C58.3826 4.4527 59.0346 4.3009 59.9375 4.3009C60.74 4.3009 61.392 4.5033 61.9939 4.8575C62.5958 5.21169 63.0472 5.71768 63.3481 6.32487C63.6491 6.93206 63.8497 7.69105 63.8497 8.55124V14.522H61.2917V8.70304C61.2917 7.94405 61.0911 7.38746 60.74 6.98266C60.3889 6.62847 59.8371 6.42607 59.1349 6.42607C58.3324 6.42607 57.7306 6.67907 57.3293 7.18506C56.8779 7.69105 56.6773 8.45004 56.6773 9.36083V14.522H54.1694Z" fill="#F5F5F5"/>
<path d="M0 33.9014V31.5233H1.8558V22.0106H0V19.6324H5.81818C7.72414 19.6324 9.17868 20.1384 10.1317 21.0998C11.1348 22.0612 11.6364 23.5286 11.6364 25.4008V28.0825C11.6364 30.0053 11.1348 31.4221 10.1317 32.3835C9.12853 33.3448 7.72414 33.8508 5.81818 33.8508H0V33.9014ZM4.51411 31.4221H5.86834C6.92163 31.4221 7.72414 31.1185 8.2257 30.5619C8.72727 30.0053 8.97806 29.1957 8.97806 28.1837V25.3502C8.97806 24.2876 8.72727 23.478 8.2257 22.9214C7.72414 22.3648 6.92163 22.0612 5.86834 22.0612H4.51411V31.4221Z" fill="#F5F5F5"/>
<path d="M18.4576 34.1545C17.4544 34.1545 16.6018 33.9521 15.8494 33.4967C15.0971 33.0919 14.4952 32.4847 14.0939 31.6751C13.6927 30.9161 13.4419 29.9547 13.4419 28.9427V28.6897C13.4419 27.6272 13.6425 26.7164 14.0438 25.9574C14.445 25.1984 15.0469 24.5912 15.7993 24.1358C16.5516 23.731 17.4043 23.478 18.4074 23.478C19.4106 23.478 20.2632 23.6804 20.9654 24.1358C21.6676 24.5912 22.2695 25.1984 22.6707 25.9574C23.072 26.7164 23.2726 27.6272 23.2726 28.6897V29.5499H15.9999C16.05 30.2583 16.3008 30.8149 16.7522 31.2197C17.2538 31.6751 17.8055 31.8775 18.5077 31.8775C19.2099 31.8775 19.7616 31.7257 20.0626 31.4221C20.4137 31.1185 20.6645 30.7643 20.8149 30.3595L22.8714 31.4727C22.6707 31.8269 22.42 32.2317 22.0689 32.6365C21.7178 33.0413 21.2162 33.3955 20.6645 33.6991C20.1127 34.0027 19.3604 34.1545 18.4576 34.1545ZM15.9999 27.6778H20.6645C20.6143 27.0706 20.3635 26.6152 19.9623 26.261C19.561 25.9068 19.0093 25.755 18.3573 25.755C17.6551 25.755 17.1033 25.9068 16.7021 26.261C16.351 26.6152 16.1002 27.1212 15.9999 27.6778Z" fill="#F5F5F5"/>
<path d="M29.6928 34.1545C28.3887 34.1545 27.3354 33.8509 26.4827 33.2943C25.6301 32.7377 25.1285 31.9281 24.978 30.8655L27.3354 30.2583C27.4357 30.7137 27.5862 31.1185 27.7868 31.3715C27.9874 31.6245 28.2884 31.8269 28.5893 31.9281C28.9404 32.0293 29.2915 32.0799 29.6928 32.0799C30.2946 32.0799 30.7461 31.9787 30.9968 31.7763C31.2978 31.5739 31.3981 31.3209 31.3981 31.0173C31.3981 30.7137 31.2476 30.4607 30.9968 30.3089C30.7461 30.1571 30.2946 30.0053 29.6928 29.9041L29.141 29.8029C28.4388 29.6511 27.7868 29.4993 27.2351 29.2463C26.6332 28.9933 26.1818 28.6897 25.8307 28.2344C25.4796 27.8296 25.3291 27.273 25.3291 26.6152C25.3291 25.6032 25.6802 24.8442 26.4326 24.2876C27.1348 23.731 28.0877 23.478 29.2915 23.478C30.395 23.478 31.3479 23.731 32.0501 24.237C32.8025 24.743 33.2539 25.4008 33.5047 26.2104L31.1473 26.9188C31.047 26.4128 30.7962 26.0586 30.4953 25.8056C30.1442 25.6032 29.7429 25.502 29.2915 25.502C28.7899 25.502 28.4388 25.6032 28.1881 25.755C27.9373 25.9068 27.7868 26.1598 27.7868 26.4634C27.7868 26.767 27.9373 27.02 28.1881 27.1718C28.4388 27.3236 28.8401 27.4248 29.2915 27.526L29.8432 27.6272C30.5956 27.779 31.2978 27.9308 31.8997 28.1838C32.5015 28.3862 33.0031 28.7403 33.3542 29.1451C33.7053 29.5499 33.9059 30.1065 33.9059 30.8149C33.9059 31.8775 33.5047 32.6871 32.7523 33.2437C32 33.9015 30.9467 34.1545 29.6928 34.1545Z" fill="#F5F5F5"/>
<path d="M37.3667 22.6179C36.9153 22.6179 36.5141 22.4661 36.2131 22.1625C35.9122 21.8589 35.7617 21.4541 35.7617 20.9987C35.7617 20.4927 35.9122 20.1385 36.2131 19.8349C36.5141 19.5313 36.9153 19.3795 37.3667 19.3795C37.8182 19.3795 38.2194 19.5313 38.5203 19.8349C38.8213 20.1385 38.9718 20.5433 38.9718 20.9987C38.9718 21.5047 38.8213 21.8589 38.5203 22.1625C38.2194 22.4661 37.8182 22.6179 37.3667 22.6179ZM36.1128 33.9015V23.7817H38.6708V33.8509H36.1128V33.9015Z" fill="#F5F5F5"/>
<path d="M40.978 28.8921V28.5885C40.978 27.5259 41.1787 26.6151 41.5799 25.8561C41.9812 25.0971 42.5329 24.5405 43.2351 24.1358C43.9373 23.731 44.6896 23.5286 45.4921 23.5286C46.395 23.5286 47.0971 23.6804 47.5486 24.0346C48 24.3382 48.3511 24.6923 48.5517 25.0465H48.9028V23.8322H51.4106V35.723C51.4106 36.4314 51.21 36.988 50.8087 37.3928C50.4075 37.7975 49.8558 37.9999 49.2037 37.9999H42.583V35.7736H48.4012C48.8025 35.7736 48.9529 35.5712 48.9529 35.1664V32.5352H48.6018C48.4514 32.7376 48.3009 32.9906 48.0501 33.193C47.7993 33.3954 47.4984 33.5978 47.0971 33.7496C46.6959 33.9014 46.1943 33.952 45.5423 33.952C44.7398 33.952 43.9874 33.7496 43.2852 33.3448C42.583 32.94 42.0313 32.3834 41.6301 31.6244C41.1787 30.8655 40.978 29.9547 40.978 28.8921ZM46.2445 31.675C47.047 31.675 47.699 31.422 48.2006 30.9161C48.7022 30.4101 49.0031 29.7017 49.0031 28.7909V28.5885C49.0031 27.6777 48.7523 26.9693 48.2508 26.4633C47.7492 25.9573 47.0971 25.7043 46.2946 25.7043C45.4921 25.7043 44.8401 25.9573 44.3385 26.4633C43.837 26.9693 43.536 27.6777 43.536 28.5885V28.7909C43.536 29.7017 43.7868 30.4101 44.3385 30.9161C44.8401 31.422 45.4921 31.675 46.2445 31.675Z" fill="#F5F5F5"/>
<path d="M54.3198 33.9015V23.7817H56.8277V25.0973H57.1788C57.3292 24.7431 57.6302 24.3889 58.0816 24.0853C58.533 23.7817 59.185 23.6299 60.0878 23.6299C60.8904 23.6299 61.5424 23.8323 62.1443 24.1865C62.7462 24.5407 63.1976 25.0467 63.4985 25.6539C63.7994 26.261 64.0001 27.02 64.0001 27.8802V33.9015H61.4421V28.0826C61.4421 27.3236 61.2415 26.767 60.8904 26.3622C60.5393 25.9574 59.9875 25.8056 59.2853 25.8056C58.4828 25.8056 57.881 26.0586 57.4797 26.5646C57.0283 27.0706 56.8277 27.8296 56.8277 28.7404V33.8509H54.3198V33.9015Z" fill="#F5F5F5"/>
</svg>
