<svg width="64" height="38" viewBox="0 0 64 38" fill="none" xmlns="http://www.w3.org/2000/svg">
<path d="M0.401245 14.5224V0.303986H5.46707L8.27584 12.7008H8.62694V0.303986H11.2351V14.5224H6.16926L3.36049 2.12556H3.00939V14.5224H0.401245Z" fill="black"/>
<path d="M17.1035 14.8256C16.4013 14.8256 15.7492 14.7244 15.1975 14.4714C14.6458 14.2184 14.1944 13.8642 13.8433 13.3582C13.4922 12.8522 13.3417 12.2956 13.3417 11.5872C13.3417 10.8788 13.4922 10.3222 13.8433 9.86685C14.1944 9.41146 14.6458 9.05727 15.1975 8.80427C15.7994 8.55127 16.4514 8.45007 17.2038 8.45007H19.9624V7.89348C19.9624 7.43809 19.8119 7.0333 19.511 6.7297C19.21 6.42611 18.7586 6.27431 18.1066 6.27431C17.4546 6.27431 17.0031 6.42611 16.7022 6.7297C16.4013 7.0333 16.2006 7.38749 16.1003 7.84288L13.743 7.0333C13.8934 6.5273 14.1442 6.02131 14.4953 5.61652C14.8464 5.21172 15.348 4.85753 15.9499 4.55393C16.5517 4.30094 17.2539 4.14914 18.1568 4.14914C19.4608 4.14914 20.5141 4.50333 21.2665 5.16112C22.0188 5.81891 22.4201 6.7803 22.4201 8.04528V11.7896C22.4201 12.1944 22.6207 12.3968 22.9718 12.3968H23.7743V14.522H22.069C21.5674 14.522 21.1662 14.4208 20.8151 14.1678C20.5141 13.9148 20.3135 13.6112 20.3135 13.2064H19.9122C19.8621 13.3582 19.7618 13.5606 19.5611 13.8642C19.3605 14.1172 19.0596 14.3702 18.6583 14.5726C18.3574 14.7244 17.8057 14.8256 17.1035 14.8256ZM17.5047 12.751C18.2069 12.751 18.8088 12.5486 19.2602 12.1438C19.7116 11.739 19.9122 11.233 19.9122 10.5246V10.3222H17.3542C16.9028 10.3222 16.5016 10.4234 16.2508 10.6258C16 10.8282 15.8495 11.1318 15.8495 11.486C15.8495 11.8402 16 12.1438 16.2508 12.3968C16.6019 12.6498 17.0031 12.751 17.5047 12.751Z" fill="black"/>
<path d="M29.141 14.6738C28.3385 14.6738 27.6865 14.4714 27.0846 14.1172C26.4827 13.763 26.0313 13.257 25.7304 12.5992C25.4294 11.9414 25.2288 11.233 25.2288 10.4234V4.45273H27.7868V10.2716C27.7868 11.0306 27.9874 11.5872 28.3385 11.992C28.6896 12.3968 29.2413 12.5486 29.9435 12.5486C30.746 12.5486 31.3479 12.2956 31.7492 11.7896C32.1504 11.2836 32.4012 10.5246 32.4012 9.61385V4.45273H34.9592V14.522H32.4514V13.2064H32.1003C31.9498 13.5606 31.6489 13.8642 31.1974 14.2184C30.746 14.522 30.0438 14.6738 29.141 14.6738Z" fill="black"/>
<path d="M37.768 14.5224V0.303986H40.326V8.19747H40.6771L43.9874 4.45312H47.2978L42.6834 9.36125L47.4483 14.573H44.1881L40.6771 10.5756H40.326V14.5224H37.768Z" fill="black"/>
<path d="M50.4075 3.23835C49.9561 3.23835 49.5548 3.08655 49.2539 2.78296C48.953 2.47936 48.8025 2.07457 48.8025 1.61918C48.8025 1.11318 48.953 0.758988 49.2539 0.455393C49.5548 0.151798 49.9561 0 50.4075 0C50.8589 0 51.2602 0.151798 51.5611 0.455393C51.862 0.758988 52.0125 1.16378 52.0125 1.61918C52.0125 2.12517 51.862 2.47936 51.5611 2.78296C51.2602 3.13715 50.8589 3.23835 50.4075 3.23835ZM49.1536 14.522V4.45273H51.7116V14.522H49.1536Z" fill="black"/>
<path d="M54.1693 14.522V4.45276H56.6771V5.76834H57.0282C57.1787 5.41415 57.4796 5.05995 57.931 4.75636C58.3824 4.45276 59.0345 4.30096 59.9373 4.30096C60.7398 4.30096 61.3918 4.50336 61.9937 4.85756C62.5956 5.21175 63.047 5.71774 63.3479 6.32493C63.6489 6.93213 63.8495 7.69111 63.8495 8.5513V14.522H61.2915V8.7031C61.2915 7.94411 61.0909 7.38752 60.7398 6.98273C60.3887 6.62853 59.837 6.42613 59.1348 6.42613C58.3323 6.42613 57.7304 6.67913 57.3291 7.18512C56.8777 7.69111 56.6771 8.4501 56.6771 9.36089V14.522H54.1693Z" fill="black"/>
<path d="M0 33.9015V31.5233H1.8558V22.0106H0V19.6325H5.81818C7.72414 19.6325 9.17868 20.1385 10.1317 21.0999C11.1348 22.0612 11.6364 23.5286 11.6364 25.4008V28.0826C11.6364 30.0053 11.1348 31.4221 10.1317 32.3835C9.12853 33.3449 7.72414 33.8509 5.81818 33.8509H0V33.9015ZM4.51411 31.4221H5.86834C6.92163 31.4221 7.72414 31.1185 8.2257 30.5619C8.72727 30.0053 8.97806 29.1957 8.97806 28.1838V25.3502C8.97806 24.2876 8.72727 23.478 8.2257 22.9214C7.72414 22.3648 6.92163 22.0612 5.86834 22.0612H4.51411V31.4221Z" fill="black"/>
<path d="M18.4577 34.1545C17.4546 34.1545 16.6019 33.9521 15.8496 33.4967C15.0972 33.0919 14.4953 32.4847 14.0941 31.6751C13.6928 30.9161 13.442 29.9548 13.442 28.9428V28.6898C13.442 27.6272 13.6427 26.7164 14.0439 25.9574C14.4452 25.1984 15.0471 24.5912 15.7994 24.1358C16.5518 23.7311 17.4044 23.4781 18.4076 23.4781C19.4107 23.4781 20.2634 23.6805 20.9656 24.1358C21.6678 24.5912 22.2696 25.1984 22.6709 25.9574C23.0721 26.7164 23.2728 27.6272 23.2728 28.6898V29.55H16C16.0502 30.2584 16.301 30.8149 16.7524 31.2197C17.254 31.6751 17.8057 31.8775 18.5079 31.8775C19.2101 31.8775 19.7618 31.7257 20.0627 31.4221C20.4138 31.1185 20.6646 30.7643 20.8151 30.3596L22.8715 31.4727C22.6709 31.8269 22.4201 32.2317 22.069 32.6365C21.7179 33.0413 21.2163 33.3955 20.6646 33.6991C20.1129 34.0027 19.3605 34.1545 18.4577 34.1545ZM16 27.6778H20.6646C20.6145 27.0706 20.3637 26.6152 19.9624 26.261C19.5612 25.9068 19.0094 25.755 18.3574 25.755C17.6552 25.755 17.1035 25.9068 16.7022 26.261C16.3511 26.6152 16.1004 27.1212 16 27.6778Z" fill="black"/>
<path d="M29.6928 34.1545C28.3887 34.1545 27.3354 33.8509 26.4828 33.2943C25.6301 32.7377 25.1285 31.9281 24.9781 30.8655L27.3354 30.2584C27.4357 30.7137 27.5862 31.1185 27.7868 31.3715C27.9875 31.6245 28.2884 31.8269 28.5893 31.9281C28.9404 32.0293 29.2915 32.0799 29.6928 32.0799C30.2947 32.0799 30.7461 31.9787 30.9969 31.7763C31.2978 31.5739 31.3981 31.3209 31.3981 31.0173C31.3981 30.7137 31.2476 30.4608 30.9969 30.309C30.7461 30.1572 30.2947 30.0054 29.6928 29.9042L29.1411 29.803C28.4389 29.6512 27.7868 29.4994 27.2351 29.2464C26.6332 28.9934 26.1818 28.6898 25.8307 28.2344C25.4796 27.8296 25.3292 27.273 25.3292 26.6152C25.3292 25.6032 25.6803 24.8442 26.4326 24.2876C27.1348 23.7311 28.0878 23.4781 29.2915 23.4781C30.395 23.4781 31.348 23.7311 32.0502 24.237C32.8025 24.743 33.2539 25.4008 33.5047 26.2104L31.1473 26.9188C31.047 26.4128 30.7962 26.0586 30.4953 25.8056C30.1442 25.6032 29.743 25.502 29.2915 25.502C28.79 25.502 28.4389 25.6032 28.1881 25.755C27.9373 25.9068 27.7868 26.1598 27.7868 26.4634C27.7868 26.767 27.9373 27.02 28.1881 27.1718C28.4389 27.3236 28.8401 27.4248 29.2915 27.526L29.8433 27.6272C30.5956 27.779 31.2978 27.9308 31.8997 28.1838C32.5016 28.3862 33.0031 28.7404 33.3542 29.1452C33.7053 29.55 33.906 30.1066 33.906 30.8149C33.906 31.8775 33.5047 32.6871 32.7524 33.2437C32 33.9015 30.9467 34.1545 29.6928 34.1545Z" fill="black"/>
<path d="M37.3668 22.6179C36.9154 22.6179 36.5141 22.4661 36.2132 22.1625C35.9122 21.8589 35.7617 21.4541 35.7617 20.9987C35.7617 20.4927 35.9122 20.1385 36.2132 19.8349C36.5141 19.5313 36.9154 19.3795 37.3668 19.3795C37.8182 19.3795 38.2194 19.5313 38.5204 19.8349C38.8213 20.1385 38.9718 20.5433 38.9718 20.9987C38.9718 21.5047 38.8213 21.8589 38.5204 22.1625C38.2194 22.4661 37.8182 22.6179 37.3668 22.6179ZM36.1129 33.9015V23.7817H38.6708V33.8509H36.1129V33.9015Z" fill="black"/>
<path d="M40.9781 28.8921V28.5886C40.9781 27.526 41.1787 26.6152 41.5799 25.8562C41.9812 25.0972 42.5329 24.5406 43.2351 24.1358C43.9373 23.731 44.6897 23.5286 45.4922 23.5286C46.395 23.5286 47.0972 23.6804 47.5486 24.0346C48 24.3382 48.3511 24.6924 48.5517 25.0466H48.9028V23.8322H51.4107V35.723C51.4107 36.4314 51.21 36.988 50.8088 37.3928C50.4075 37.7976 49.8558 38 49.2038 38H42.5831V35.7736H48.4013C48.8025 35.7736 48.953 35.5712 48.953 35.1665V32.5353H48.6019C48.4514 32.7377 48.3009 32.9907 48.0502 33.1931C47.7994 33.3955 47.4984 33.5979 47.0972 33.7497C46.6959 33.9015 46.1944 33.9521 45.5423 33.9521C44.7398 33.9521 43.9875 33.7497 43.2853 33.3449C42.5831 32.9401 42.0314 32.3835 41.6301 31.6245C41.1787 30.8655 40.9781 29.9547 40.9781 28.8921ZM46.2445 31.6751C47.047 31.6751 47.6991 31.4221 48.2006 30.9161C48.7022 30.4101 49.0031 29.7017 49.0031 28.7909V28.5886C49.0031 27.6778 48.7523 26.9694 48.2508 26.4634C47.7492 25.9574 47.0972 25.7044 46.2947 25.7044C45.4922 25.7044 44.8401 25.9574 44.3386 26.4634C43.837 26.9694 43.536 27.6778 43.536 28.5886V28.7909C43.536 29.7017 43.7868 30.4101 44.3386 30.9161C44.8401 31.4221 45.4922 31.6751 46.2445 31.6751Z" fill="black"/>
<path d="M54.3197 33.9015V23.7816H56.8276V25.0972H57.1787C57.3291 24.743 57.6301 24.3888 58.0815 24.0852C58.5329 23.7817 59.1849 23.6299 60.0878 23.6299C60.8903 23.6299 61.5423 23.8322 62.1442 24.1864C62.7461 24.5406 63.1975 25.0466 63.4984 25.6538C63.7994 26.261 64 27.02 64 27.8802V33.9015H61.442V28.0826C61.442 27.3236 61.2414 26.767 60.8903 26.3622C60.5392 25.9574 59.9874 25.8056 59.2853 25.8056C58.4827 25.8056 57.8809 26.0586 57.4796 26.5646C57.0282 27.0706 56.8276 27.8296 56.8276 28.7404V33.8509H54.3197V33.9015Z" fill="black"/>
</svg>
