<svg width="369" height="216" viewBox="0 0 369 216" fill="none" xmlns="http://www.w3.org/2000/svg">
<path d="M2.31421 82.2012V1.7207H31.5219L47.7162 71.8906H49.7405V1.7207H64.7781V82.2012H35.5705L19.3761 12.0314H17.3518V82.2012H2.31421Z" fill="#C1C1C1"/>
<path d="M98.6125 83.9179C94.5639 83.9179 90.8045 83.3451 87.6234 81.9131C84.4424 80.481 81.8397 78.4762 79.8154 75.6121C77.7911 72.748 76.9236 69.5975 76.9236 65.5878C76.9236 61.5781 77.7911 58.4276 79.8154 55.8499C81.8397 53.2723 84.4424 51.2674 87.6234 49.8354C91.0937 48.4033 94.8531 47.8305 99.1908 47.8305H115.096V44.68C115.096 42.1024 114.228 39.8111 112.493 38.0926C110.758 36.3742 108.156 35.515 104.396 35.515C100.637 35.515 98.0341 36.3742 96.299 38.0926C94.5639 39.8111 93.4071 41.8159 92.8288 44.3936L79.2371 39.8111C80.1046 36.947 81.5506 34.0829 83.5749 31.7917C85.5991 29.5004 88.491 27.4955 91.9612 25.7771C95.4314 24.3451 99.48 23.4858 104.685 23.4858C112.204 23.4858 118.277 25.4907 122.615 29.214C126.953 32.9373 129.266 38.3791 129.266 45.5392V66.7334C129.266 69.0247 130.423 70.1703 132.447 70.1703H137.074V82.1995H127.242C124.35 82.1995 122.037 81.6266 120.012 80.1946C118.277 78.7626 117.12 77.0441 117.12 74.7529H114.807C114.518 75.6121 113.939 76.7577 112.783 78.4762C111.626 79.9082 109.891 81.3402 107.577 82.4859C105.842 83.3451 102.661 83.9179 98.6125 83.9179ZM100.926 72.1752C104.975 72.1752 108.445 71.0295 111.047 68.7383C113.65 66.447 114.807 63.5829 114.807 59.5732V58.4276H100.058C97.4557 58.4276 95.1423 59.0004 93.6963 60.146C92.2504 61.2917 91.3828 63.0101 91.3828 65.015C91.3828 67.0198 92.2504 68.7383 93.6963 70.1703C95.7206 71.6024 98.0341 72.1752 100.926 72.1752Z" fill="#C1C1C1"/>
<path d="M168.017 83.0585C163.39 83.0585 159.631 81.9128 156.161 79.908C152.691 77.9031 150.088 75.0391 148.353 71.3158C146.618 67.5924 145.461 63.5827 145.461 59.0002V25.2041H160.209V58.141C160.209 62.4371 161.366 65.5876 163.39 67.8789C165.415 70.1701 168.596 71.0293 172.644 71.0293C177.271 71.0293 180.742 69.5973 183.055 66.7332C185.368 63.8691 186.814 59.573 186.814 54.4177V25.2041H201.563V82.1992H187.104V74.7526H185.079C184.212 76.7575 182.477 78.4759 179.874 80.4808C177.271 82.1992 173.223 83.0585 168.017 83.0585Z" fill="#C1C1C1"/>
<path d="M217.757 82.2012V1.7207H232.505V46.4003H234.53L253.616 25.2061H272.702L246.097 52.9877L273.57 82.4877H254.772L234.53 59.8615H232.505V82.2012H217.757Z" fill="#C1C1C1"/>
<path d="M290.633 18.3301C288.03 18.3301 285.717 17.4709 283.982 15.7524C282.246 14.034 281.379 11.7427 281.379 9.16505C281.379 6.30097 282.246 4.29611 283.982 2.57767C285.717 0.859222 288.03 0 290.633 0C293.235 0 295.549 0.859222 297.284 2.57767C299.019 4.29611 299.887 6.58738 299.887 9.16505C299.887 12.0291 299.019 14.034 297.284 15.7524C295.549 17.7573 293.235 18.3301 290.633 18.3301ZM283.403 82.199V25.2039H298.152V82.199H283.403Z" fill="#C1C1C1"/>
<path d="M312.321 82.1991V25.204H326.78V32.6506H328.804C329.672 30.6457 331.407 28.6408 334.01 26.9224C336.612 25.204 340.372 24.3447 345.577 24.3447C350.204 24.3447 353.963 25.4904 357.434 27.4952C360.904 29.5001 363.507 32.3641 365.242 35.801C366.977 39.2379 368.133 43.534 368.133 48.403V82.1991H353.385V49.2622C353.385 44.9661 352.228 41.8156 350.204 39.5243C348.18 37.5195 344.999 36.3739 340.95 36.3739C336.323 36.3739 332.853 37.8059 330.539 40.67C327.937 43.534 326.78 47.8302 326.78 52.9855V82.1991H312.321Z" fill="#C1C1C1"/>
<path d="M0 191.893V178.432H10.6999V124.587H0V111.126H33.5455C44.5345 111.126 52.9209 113.99 58.4154 119.432C64.1991 124.874 67.091 133.179 67.091 143.776V158.956C67.091 169.84 64.1991 177.859 58.4154 183.301C52.6317 188.742 44.5345 191.607 33.5455 191.607H0V191.893ZM26.0267 177.859H33.8347C39.9076 177.859 44.5345 176.14 47.4264 172.99C50.3182 169.84 51.7642 165.257 51.7642 159.529V143.49C51.7642 137.475 50.3182 132.893 47.4264 129.742C44.5345 126.592 39.9076 124.874 33.8347 124.874H26.0267V177.859Z" fill="#C1C1C1"/>
<path d="M106.419 193.325C100.635 193.325 95.7192 192.179 91.3814 189.602C87.0436 187.31 83.5734 183.874 81.2599 179.291C78.9464 174.995 77.5005 169.553 77.5005 163.825V162.393C77.5005 156.378 78.6573 151.223 80.9707 146.927C83.2842 142.631 86.7545 139.194 91.0922 136.616C95.43 134.325 100.346 132.893 106.13 132.893C111.914 132.893 116.83 134.039 120.878 136.616C124.927 139.194 128.397 142.631 130.711 146.927C133.024 151.223 134.181 156.378 134.181 162.393V167.262H92.249C92.5381 171.272 93.9841 174.422 96.5867 176.713C99.4786 179.291 102.66 180.437 106.708 180.437C110.757 180.437 113.938 179.577 115.673 177.859C117.697 176.141 119.143 174.136 120.011 171.844L131.867 178.145C130.711 180.15 129.265 182.442 127.24 184.733C125.216 187.024 122.324 189.029 119.143 190.747C115.962 192.466 111.624 193.325 106.419 193.325ZM92.249 156.665H119.143C118.854 153.228 117.408 150.65 115.095 148.645C112.781 146.641 109.6 145.781 105.841 145.781C101.792 145.781 98.611 146.641 96.2975 148.645C94.2732 150.65 92.8273 153.514 92.249 156.665Z" fill="#C1C1C1"/>
<path d="M171.198 193.325C163.679 193.325 157.606 191.607 152.69 188.456C147.774 185.306 144.882 180.723 144.015 174.709L157.606 171.272C158.185 173.849 159.052 176.141 160.209 177.573C161.366 179.005 163.101 180.15 164.836 180.723C166.86 181.296 168.885 181.582 171.198 181.582C174.668 181.582 177.271 181.01 178.717 179.864C180.452 178.718 181.03 177.286 181.03 175.568C181.03 173.849 180.163 172.417 178.717 171.558C177.271 170.699 174.668 169.84 171.198 169.267L168.017 168.694C163.968 167.835 160.209 166.976 157.028 165.544C153.558 164.111 150.955 162.393 148.931 159.815C146.907 157.524 146.039 154.374 146.039 150.65C146.039 144.922 148.063 140.626 152.401 137.476C156.45 134.325 161.944 132.893 168.885 132.893C175.247 132.893 180.741 134.325 184.79 137.189C189.128 140.053 191.73 143.777 193.176 148.359L179.584 152.369C179.006 149.505 177.56 147.5 175.825 146.068C173.801 144.922 171.487 144.349 168.885 144.349C165.993 144.349 163.968 144.922 162.523 145.781C161.077 146.641 160.209 148.073 160.209 149.791C160.209 151.51 161.077 152.942 162.523 153.801C163.968 154.66 166.282 155.233 168.885 155.806L172.066 156.378C176.403 157.238 180.452 158.097 183.922 159.529C187.392 160.675 190.284 162.679 192.309 164.971C194.333 167.262 195.49 170.412 195.49 174.422C195.49 180.437 193.176 185.019 188.838 188.17C184.501 191.893 178.428 193.325 171.198 193.325Z" fill="#C1C1C1"/>
<path d="M215.443 128.024C212.84 128.024 210.527 127.165 208.791 125.447C207.056 123.728 206.189 121.437 206.189 118.859C206.189 115.995 207.056 113.99 208.791 112.272C210.527 110.554 212.84 109.694 215.443 109.694C218.045 109.694 220.359 110.554 222.094 112.272C223.829 113.99 224.697 116.282 224.697 118.859C224.697 121.723 223.829 123.728 222.094 125.447C220.359 127.165 218.045 128.024 215.443 128.024ZM208.213 191.893V134.612H222.961V191.607H208.213V191.893Z" fill="#C1C1C1"/>
<path d="M236.264 163.538V161.82C236.264 155.805 237.421 150.65 239.734 146.354C242.048 142.058 245.229 138.907 249.277 136.616C253.326 134.325 257.664 133.179 262.291 133.179C267.496 133.179 271.545 134.038 274.147 136.043C276.75 137.762 278.774 139.767 279.931 141.771H281.955V134.898H296.415V202.203C296.415 206.213 295.258 209.364 292.944 211.655C290.631 213.946 287.45 215.092 283.69 215.092H245.518V202.49H279.064C281.377 202.49 282.245 201.344 282.245 199.053V184.16H280.22C279.353 185.305 278.485 186.737 277.039 187.883C275.593 189.029 273.858 190.174 271.545 191.034C269.231 191.893 266.339 192.179 262.58 192.179C257.953 192.179 253.615 191.034 249.567 188.742C245.518 186.451 242.337 183.301 240.024 179.004C237.421 174.708 236.264 169.553 236.264 163.538ZM266.629 179.291C271.256 179.291 275.015 177.859 277.907 174.995C280.799 172.131 282.534 168.121 282.534 162.966V161.82C282.534 156.665 281.088 152.655 278.196 149.791C275.304 146.927 271.545 145.495 266.918 145.495C262.291 145.495 258.531 146.927 255.64 149.791C252.748 152.655 251.013 156.665 251.013 161.82V162.966C251.013 168.121 252.459 172.131 255.64 174.995C258.531 177.859 262.291 179.291 266.629 179.291Z" fill="#C1C1C1"/>
<path d="M313.188 191.894V134.612H327.647V142.059H329.671C330.539 140.054 332.274 138.049 334.876 136.331C337.479 134.612 341.238 133.753 346.444 133.753C351.071 133.753 354.83 134.899 358.3 136.903C361.771 138.908 364.373 141.772 366.108 145.209C367.843 148.646 369 152.942 369 157.811V191.894H354.252V158.957C354.252 154.661 353.095 151.51 351.071 149.219C349.046 146.928 345.865 146.068 341.817 146.068C337.19 146.068 333.72 147.5 331.406 150.365C328.803 153.229 327.647 157.525 327.647 162.68V191.607H313.188V191.894Z" fill="#C1C1C1"/>
</svg>
