<svg width="16" height="16" viewBox="0 0 16 16" fill="none" xmlns="http://www.w3.org/2000/svg">
<path d="M8 0C3.58065 0 0 3.58065 0 8C0 12.4194 3.58065 16 8 16C12.4194 16 16 12.4194 16 8C16 3.58065 12.4194 0 8 0ZM2.91613 5.66452C3.13226 5.09677 3.77742 4.80323 4.36452 4.95806L4.59355 5.01935L4.65806 4.79032C4.81935 4.20645 5.39355 3.79355 5.99677 3.89032C6.6871 4 7.10645 4.67097 6.92581 5.32581L6.3 7.58065C6.26129 7.72581 6.10968 7.8129 5.96129 7.77419L3.69677 7.1871C3.03871 7.0129 2.66774 6.31613 2.91613 5.66452ZM8 13.6774C6.04516 13.6774 3.66129 12.4419 3.36129 10.6677C3.29677 10.2871 3.65806 9.97419 4.02903 10.0903C5.00323 10.4032 6.45161 10.5806 8 10.5806C9.54839 10.5806 10.9968 10.4032 11.971 10.0903C12.3387 9.97419 12.7 10.2871 12.6387 10.6677C12.3387 12.4419 9.95484 13.6774 8 13.6774ZM12.3032 7.18387L10.0387 7.77097C9.89355 7.80968 9.74194 7.72258 9.7 7.57742L9.07419 5.32258C8.89355 4.66774 9.3129 3.99677 10.0032 3.8871C10.6032 3.79032 11.1774 4.20323 11.3419 4.7871L11.4065 5.01613L11.6355 4.95484C12.2226 4.80323 12.8677 5.09355 13.0839 5.66129C13.3323 6.31613 12.9613 7.0129 12.3032 7.18387Z" fill="black"/>
</svg>
