<svg width="87" height="37" viewBox="0 0 87 37" fill="none" xmlns="http://www.w3.org/2000/svg">
<path d="M16.184 2.2V19H13.616L4.352 7.624V19H1.256V2.2H3.824L13.088 13.576V2.2H16.184ZM25.2937 6.04C27.1817 6.04 28.6217 6.496 29.6137 7.408C30.6217 8.304 31.1257 9.664 31.1257 11.488V19H28.2937V17.44C27.9257 18 27.3977 18.432 26.7097 18.736C26.0377 19.024 25.2217 19.168 24.2617 19.168C23.3017 19.168 22.4617 19.008 21.7417 18.688C21.0217 18.352 20.4617 17.896 20.0617 17.32C19.6777 16.728 19.4857 16.064 19.4857 15.328C19.4857 14.176 19.9097 13.256 20.7577 12.568C21.6217 11.864 22.9737 11.512 24.8137 11.512H28.1257V11.32C28.1257 10.424 27.8537 9.736 27.3097 9.256C26.7817 8.776 25.9897 8.536 24.9337 8.536C24.2137 8.536 23.5017 8.648 22.7977 8.872C22.1097 9.096 21.5257 9.408 21.0457 9.808L19.8697 7.624C20.5417 7.112 21.3497 6.72 22.2937 6.448C23.2377 6.176 24.2377 6.04 25.2937 6.04ZM24.8857 16.984C25.6377 16.984 26.3017 16.816 26.8777 16.48C27.4697 16.128 27.8857 15.632 28.1257 14.992V13.504H25.0297C23.3017 13.504 22.4377 14.072 22.4377 15.208C22.4377 15.752 22.6537 16.184 23.0857 16.504C23.5177 16.824 24.1177 16.984 24.8857 16.984ZM47.3838 6.184V19H44.5278V17.368C44.0478 17.944 43.4478 18.392 42.7278 18.712C42.0078 19.016 41.2318 19.168 40.3998 19.168C38.6878 19.168 37.3358 18.696 36.3438 17.752C35.3678 16.792 34.8798 15.376 34.8798 13.504V6.184H37.8798V13.096C37.8798 14.248 38.1358 15.112 38.6478 15.688C39.1758 16.248 39.9198 16.528 40.8798 16.528C41.9518 16.528 42.7998 16.2 43.4238 15.544C44.0638 14.872 44.3838 13.912 44.3838 12.664V6.184H47.3838ZM56.5438 13.504L54.3118 15.616V19H51.3118V1.192H54.3118V11.944L60.5278 6.184H64.1278L58.7758 11.56L64.6318 19H60.9838L56.5438 13.504ZM66.4524 6.184H69.4524V19H66.4524V6.184ZM67.9644 4.072C67.4204 4.072 66.9644 3.904 66.5964 3.568C66.2284 3.216 66.0444 2.784 66.0444 2.272C66.0444 1.76 66.2284 1.336 66.5964 0.999999C66.9644 0.647999 67.4204 0.472 67.9644 0.472C68.5084 0.472 68.9644 0.639999 69.3324 0.975999C69.7004 1.296 69.8844 1.704 69.8844 2.2C69.8844 2.728 69.7004 3.176 69.3324 3.544C68.9804 3.896 68.5244 4.072 67.9644 4.072ZM80.6619 6.04C82.2779 6.04 83.5739 6.512 84.5499 7.456C85.5259 8.4 86.0139 9.8 86.0139 11.656V19H83.0139V12.04C83.0139 10.92 82.7499 10.08 82.2219 9.52C81.6939 8.944 80.9419 8.656 79.9659 8.656C78.8619 8.656 77.9899 8.992 77.3499 9.664C76.7099 10.32 76.3899 11.272 76.3899 12.52V19H73.3899V6.184H76.2459V7.84C76.7419 7.248 77.3659 6.8 78.1179 6.496C78.8699 6.192 79.7179 6.04 80.6619 6.04ZM0.47 24.2H4.6C5.636 24.2 6.55533 24.4053 7.358 24.816C8.16067 25.2267 8.78133 25.8053 9.22 26.552C9.668 27.2893 9.892 28.1387 9.892 29.1C9.892 30.0613 9.668 30.9153 9.22 31.662C8.78133 32.3993 8.16067 32.9733 7.358 33.384C6.55533 33.7947 5.636 34 4.6 34H0.47V24.2ZM4.516 32.782C5.30933 32.782 6.00467 32.628 6.602 32.32C7.20867 32.012 7.67533 31.5827 8.002 31.032C8.32867 30.472 8.492 29.828 8.492 29.1C8.492 28.372 8.32867 27.7327 8.002 27.182C7.67533 26.622 7.20867 26.188 6.602 25.88C6.00467 25.572 5.30933 25.418 4.516 25.418H1.87V32.782H4.516ZM18.5464 30.332C18.5464 30.4347 18.5371 30.57 18.5184 30.738H12.4984C12.5824 31.3913 12.8671 31.9187 13.3524 32.32C13.8471 32.712 14.4584 32.908 15.1864 32.908C16.0731 32.908 16.7871 32.6093 17.3284 32.012L18.0704 32.88C17.7344 33.272 17.3144 33.5707 16.8104 33.776C16.3157 33.9813 15.7604 34.084 15.1444 34.084C14.3604 34.084 13.6651 33.9253 13.0584 33.608C12.4517 33.2813 11.9804 32.8287 11.6444 32.25C11.3177 31.6713 11.1544 31.018 11.1544 30.29C11.1544 29.5713 11.3131 28.9227 11.6304 28.344C11.9571 27.7653 12.4004 27.3173 12.9604 27C13.5297 26.6733 14.1691 26.51 14.8784 26.51C15.5877 26.51 16.2177 26.6733 16.7684 27C17.3284 27.3173 17.7624 27.7653 18.0704 28.344C18.3877 28.9227 18.5464 29.5853 18.5464 30.332ZM14.8784 27.644C14.2344 27.644 13.6931 27.84 13.2544 28.232C12.8251 28.624 12.5731 29.1373 12.4984 29.772H17.2584C17.1837 29.1467 16.9271 28.638 16.4884 28.246C16.0591 27.8447 15.5224 27.644 14.8784 27.644ZM22.5407 34.084C21.934 34.084 21.3507 34.0047 20.7907 33.846C20.2307 33.678 19.792 33.468 19.4747 33.216L20.0347 32.152C20.3613 32.3853 20.758 32.572 21.2247 32.712C21.6913 32.852 22.1627 32.922 22.6387 32.922C23.8147 32.922 24.4027 32.586 24.4027 31.914C24.4027 31.69 24.3233 31.5127 24.1647 31.382C24.006 31.2513 23.8053 31.158 23.5627 31.102C23.3293 31.0367 22.9933 30.9667 22.5547 30.892C21.9573 30.7987 21.4673 30.6913 21.0847 30.57C20.7113 30.4487 20.3893 30.2433 20.1187 29.954C19.848 29.6647 19.7127 29.2587 19.7127 28.736C19.7127 28.064 19.9927 27.5273 20.5527 27.126C21.1127 26.7153 21.864 26.51 22.8067 26.51C23.3013 26.51 23.796 26.5707 24.2907 26.692C24.7853 26.8133 25.1913 26.9767 25.5087 27.182L24.9347 28.246C24.328 27.854 23.614 27.658 22.7927 27.658C22.2233 27.658 21.7893 27.7513 21.4907 27.938C21.192 28.1247 21.0427 28.372 21.0427 28.68C21.0427 28.9227 21.1267 29.114 21.2947 29.254C21.4627 29.394 21.668 29.4967 21.9107 29.562C22.1627 29.6273 22.5127 29.702 22.9607 29.786C23.558 29.8887 24.0387 30.0007 24.4027 30.122C24.776 30.234 25.0933 30.43 25.3547 30.71C25.616 30.99 25.7467 31.382 25.7467 31.886C25.7467 32.558 25.4573 33.0947 24.8787 33.496C24.3093 33.888 23.53 34.084 22.5407 34.084ZM27.4263 26.58H28.7703V34H27.4263V26.58ZM28.0983 25.152C27.837 25.152 27.6177 25.068 27.4403 24.9C27.2723 24.732 27.1883 24.5267 27.1883 24.284C27.1883 24.0413 27.2723 23.836 27.4403 23.668C27.6177 23.4907 27.837 23.402 28.0983 23.402C28.3597 23.402 28.5743 23.486 28.7423 23.654C28.9197 23.8127 29.0083 24.0133 29.0083 24.256C29.0083 24.508 28.9197 24.7227 28.7423 24.9C28.5743 25.068 28.3597 25.152 28.0983 25.152ZM38.4345 26.58V32.992C38.4345 34.2893 38.1125 35.246 37.4685 35.862C36.8245 36.4873 35.8632 36.8 34.5845 36.8C33.8845 36.8 33.2172 36.702 32.5825 36.506C31.9478 36.3193 31.4345 36.0487 31.0425 35.694L31.6865 34.658C32.0318 34.9567 32.4565 35.19 32.9605 35.358C33.4738 35.5353 34.0012 35.624 34.5425 35.624C35.4105 35.624 36.0498 35.4187 36.4605 35.008C36.8805 34.5973 37.0905 33.972 37.0905 33.132V32.544C36.7732 32.9267 36.3812 33.216 35.9145 33.412C35.4572 33.5987 34.9578 33.692 34.4165 33.692C33.7072 33.692 33.0632 33.5427 32.4845 33.244C31.9152 32.936 31.4672 32.5113 31.1405 31.97C30.8138 31.4193 30.6505 30.794 30.6505 30.094C30.6505 29.394 30.8138 28.7733 31.1405 28.232C31.4672 27.6813 31.9152 27.2567 32.4845 26.958C33.0632 26.6593 33.7072 26.51 34.4165 26.51C34.9765 26.51 35.4945 26.6127 35.9705 26.818C36.4558 27.0233 36.8525 27.3267 37.1605 27.728V26.58H38.4345ZM34.5705 32.516C35.0558 32.516 35.4898 32.4133 35.8725 32.208C36.2645 32.0027 36.5678 31.718 36.7825 31.354C37.0065 30.9807 37.1185 30.5607 37.1185 30.094C37.1185 29.3753 36.8805 28.7967 36.4045 28.358C35.9285 27.91 35.3172 27.686 34.5705 27.686C33.8145 27.686 33.1985 27.91 32.7225 28.358C32.2465 28.7967 32.0085 29.3753 32.0085 30.094C32.0085 30.5607 32.1158 30.9807 32.3305 31.354C32.5545 31.718 32.8578 32.0027 33.2405 32.208C33.6325 32.4133 34.0758 32.516 34.5705 32.516ZM44.9645 26.51C45.9072 26.51 46.6538 26.7853 47.2045 27.336C47.7645 27.8773 48.0445 28.6753 48.0445 29.73V34H46.7005V29.884C46.7005 29.1653 46.5278 28.624 46.1825 28.26C45.8372 27.896 45.3425 27.714 44.6985 27.714C43.9705 27.714 43.3965 27.9287 42.9765 28.358C42.5565 28.778 42.3465 29.3847 42.3465 30.178V34H41.0025V26.58H42.2905V27.7C42.5612 27.3173 42.9252 27.0233 43.3825 26.818C43.8492 26.6127 44.3765 26.51 44.9645 26.51Z" fill="#131313"/>
</svg>
